<svg width="32" height="32" viewBox="0 0 32 32" fill="none" xmlns="http://www.w3.org/2000/svg">
<path d="M26.7226 22.208C26.1572 23.4313 25.8866 23.978 25.1612 25.0573C24.1472 26.5667 22.7146 28.45 20.9439 28.4633C19.3699 28.4753 18.9632 27.4587 16.8266 27.4753C14.6906 27.486 14.2452 28.482 12.6686 28.4647C10.8992 28.45 9.54324 26.7527 8.52858 25.2473C5.68924 21.0207 5.39058 16.0687 7.14458 13.4333C8.38524 11.5647 10.3492 10.4673 12.1926 10.4673C14.0706 10.4673 15.2512 11.4767 16.8032 11.4767C18.3112 11.4767 19.2286 10.4653 21.4006 10.4653C23.0432 10.4653 24.7806 11.3407 26.0212 12.8487C21.9612 15.0233 22.6206 20.6907 26.7226 22.208Z" fill="#1A1A1A"/>
<path d="M20.0306 8.514C20.8766 7.46267 21.5186 5.978 21.2853 4.466C19.906 4.558 18.2913 5.41134 17.3486 6.516C16.494 7.52267 15.7853 9.01734 16.0613 10.464C17.5673 10.51 19.126 9.642 20.0306 8.514Z" fill="#1A1A1A"/>
</svg>
