<svg width="49" height="48" viewBox="0 0 49 48" fill="none" xmlns="http://www.w3.org/2000/svg">
<path d="M10.5 9.98438V11.9844H14.5C14.9297 11.9844 15.2969 12.2656 15.4375 12.6719L17.3047 29.3359C17.4766 30.8438 18.7734 32 20.2891 32H32.5V30H20.2891C19.7734 30 19.3516 29.625 19.2969 29.1172L19.1719 28H31.8594C33.2812 28 34.5234 26.9844 34.8047 25.5937L36.7188 16H17.8203L17.3906 12.1875L17.3594 12.0937C16.9766 10.8437 15.8125 9.99219 14.5 9.98438H10.5ZM30.5 32C29.3984 32 28.5 32.8984 28.5 34C28.5 35.1016 29.3984 36 30.5 36C31.6016 36 32.5 35.1016 32.5 34C32.5 32.8984 31.6016 32 30.5 32ZM20.5 32C19.3984 32 18.5 32.8984 18.5 34C18.5 35.1016 19.3984 36 20.5 36C21.6016 36 22.5 35.1016 22.5 34C22.5 32.8984 21.6016 32 20.5 32ZM18.0469 18H34.2812L32.8438 25.1953C32.7422 25.6719 32.3438 26 31.8594 26H18.9453L18.0469 18Z" fill="white"/>
</svg>
