<svg width="17" height="11" viewBox="0 0 17 11" fill="none" xmlns="http://www.w3.org/2000/svg">
<path d="M2 0C1.17578 0 0.5 0.675781 0.5 1.5V8.5C0.5 9.32422 1.17578 10 2 10H2.59375C2.80078 10.5781 3.35156 11 4 11C4.64844 11 5.19922 10.5781 5.40625 10H11.5664C11.7734 10.5781 12.3242 11 12.9727 11C13.6211 11 14.1719 10.5781 14.3789 10H15C15.8203 10 16.5 9.32422 16.5 8.5V6.80469C16.5 6.50781 16.4102 6.21484 16.2461 5.96875L14.6875 3.66797C14.4062 3.25 13.9375 3 13.4375 3H10.5V1.5C10.5 0.675781 9.82422 0 9 0H2ZM2 1H9C9.28125 1 9.5 1.21875 9.5 1.5V9H5.40625C5.19922 8.42188 4.64844 8 4 8C3.35156 8 2.80078 8.42188 2.59375 9H2C1.71875 9 1.5 8.78125 1.5 8.5V1.5C1.5 1.21875 1.71875 1 2 1ZM10.5 4H13.4375C13.6055 4 13.7617 4.08594 13.8555 4.22266V4.22656L15.4141 6.52734C15.4688 6.60937 15.5 6.70313 15.5 6.80469V8.5C15.5 8.78125 15.2812 9 15 9H14.3789C14.1719 8.42188 13.6211 8 12.9727 8C12.3242 8 11.7734 8.42188 11.5664 9H10.5V4ZM4 9C4.28125 9 4.5 9.21875 4.5 9.5C4.5 9.78125 4.28125 10 4 10C3.71875 10 3.5 9.78125 3.5 9.5C3.5 9.21875 3.71875 9 4 9ZM12.9727 9C13.2539 9 13.4727 9.21875 13.4727 9.5C13.4727 9.78125 13.2539 10 12.9727 10C12.6914 10 12.4727 9.78125 12.4727 9.5C12.4727 9.21875 12.6914 9 12.9727 9Z" fill="#EE728A"/>
</svg>
