<svg width="33" height="33" viewBox="0 0 33 33" fill="none" xmlns="http://www.w3.org/2000/svg">
<path d="M12.6666 2.5V8.5H14.6666V2.5H12.6666ZM16.6666 4.5V8.5H18.6666V4.5H16.6666ZM6.66663 10.5V23.5C6.66663 26.25 8.91666 28.5 11.6666 28.5H19.6666C22.4166 28.5 24.6666 26.25 24.6666 23.5V22.5H25.6666C27.3117 22.5 28.6666 21.1451 28.6666 19.5V15.5C28.6666 13.8549 27.3117 12.5 25.6666 12.5H24.6666V10.5H6.66663ZM8.66663 12.5H22.6666V23.5C22.6666 25.17 21.3367 26.5 19.6666 26.5H11.6666C9.9966 26.5 8.66663 25.17 8.66663 23.5V12.5ZM24.6666 14.5H25.6666C26.2296 14.5 26.6666 14.9371 26.6666 15.5V19.5C26.6666 20.0629 26.2296 20.5 25.6666 20.5H24.6666V14.5Z" fill="#225C4B"/>
</svg>
