<svg width="33" height="32" viewBox="0 0 33 32" fill="none" xmlns="http://www.w3.org/2000/svg">
<path d="M16.5 3.79932C13.1406 3.79932 9.91879 5.13384 7.54332 7.5093C5.16786 9.88476 3.83334 13.1066 3.83334 16.466C3.83334 19.8254 5.16786 23.0472 7.54332 25.4227C9.91879 27.7981 13.1406 29.1327 16.5 29.1327C19.8594 29.1327 23.0812 27.7981 25.4567 25.4227C27.8322 23.0472 29.1667 19.8254 29.1667 16.466C29.1667 13.1066 27.8322 9.88476 25.4567 7.5093C23.0812 5.13384 19.8594 3.79932 16.5 3.79932Z" fill="#039BE5"/>
<path d="M18.2147 19.8233H21.4927L22.0073 16.4933H18.214V14.6733C18.214 13.29 18.666 12.0633 19.96 12.0633H22.0393V9.15733C21.674 9.108 20.9013 9 19.4413 9C16.3927 9 14.6053 10.61 14.6053 14.278V16.4933H11.4713V19.8233H14.6053V28.976C15.226 29.0693 15.8547 29.1327 16.5 29.1327C17.0833 29.1327 17.6527 29.0793 18.2147 29.0033V19.8233Z" fill="white"/>
</svg>
