<svg width="33" height="32" viewBox="0 0 33 32" fill="none" xmlns="http://www.w3.org/2000/svg">
<path d="M29.574 13.3887H28.5V13.3334H16.5V18.6667H24.0354C22.936 21.7714 19.982 24 16.5 24C12.082 24 8.50002 20.418 8.50002 16C8.50002 11.582 12.082 8.00002 16.5 8.00002C18.5394 8.00002 20.3947 8.76935 21.8074 10.026L25.5787 6.25469C23.1974 4.03535 20.012 2.66669 16.5 2.66669C9.13669 2.66669 3.16669 8.63669 3.16669 16C3.16669 23.3634 9.13669 29.3334 16.5 29.3334C23.8634 29.3334 29.8334 23.3634 29.8334 16C29.8334 15.106 29.7414 14.2334 29.574 13.3887Z" fill="#FFC107"/>
<path d="M4.70398 9.79402L9.08465 13.0067C10.27 10.072 13.1406 8.00002 16.5 8.00002C18.5393 8.00002 20.3946 8.76935 21.8073 10.026L25.5786 6.25469C23.1973 4.03535 20.012 2.66669 16.5 2.66669C11.3786 2.66669 6.93731 5.55802 4.70398 9.79402Z" fill="#FF3D00"/>
<path d="M16.5 29.3333C19.944 29.3333 23.0733 28.0153 25.4393 25.872L21.3127 22.38C19.974 23.394 18.31 24 16.5 24C13.032 24 10.0873 21.7886 8.978 18.7026L4.63 22.0526C6.83667 26.3706 11.318 29.3333 16.5 29.3333Z" fill="#4CAF50"/>
<path d="M29.574 13.3886H28.5V13.3333H16.5V18.6666H24.0353C23.5073 20.158 22.548 21.444 21.3107 22.3806L21.3127 22.3793L25.4393 25.8713C25.1473 26.1366 29.8333 22.6666 29.8333 16C29.8333 15.106 29.7413 14.2333 29.574 13.3886Z" fill="#1976D2"/>
</svg>
