<svg width="26" height="23" viewBox="0 0 26 23" fill="none" xmlns="http://www.w3.org/2000/svg">
<path d="M13 0.5C10.0659 0.5 7.39566 1.25144 5.39453 2.51172C3.39341 3.77199 2 5.61764 2 7.75V8.6875C0.841932 9.10445 0 10.2063 0 11.5C0 12.2682 0.302678 12.9668 0.785156 13.5C0.302678 14.0332 0 14.7318 0 15.5C0 16.7937 0.841932 17.8955 2 18.3125V19.5C2 21.1451 3.35494 22.5 5 22.5H21C22.6451 22.5 24 21.1451 24 19.5V18.3125C25.1581 17.8955 26 16.7937 26 15.5C26 14.7318 25.6973 14.0332 25.2148 13.5C25.6973 12.9668 26 12.2682 26 11.5C26 10.2063 25.1581 9.10445 24 8.6875V7.625C24 5.49264 22.5966 3.66848 20.5938 2.44141C18.5909 1.21433 15.9266 0.5 13 0.5ZM13 2.5C15.5954 2.5 17.9303 3.15801 19.5469 4.14844C21.1635 5.13886 22 6.37536 22 7.625V8.5H4V7.75C4 6.50036 4.84256 5.22235 6.46094 4.20312C8.07931 3.1839 10.4121 2.5 13 2.5ZM3 10.5H22.9297H23C23.5629 10.5 24 10.9371 24 11.5C24 12.0629 23.5629 12.5 23 12.5H3.07031H3C2.43706 12.5 2 12.0629 2 11.5C2 10.9371 2.43706 10.5 3 10.5ZM3 14.5H4.83594C4.7539 14.5134 4.67385 14.5371 4.59766 14.5703C4.53593 14.5969 4.47704 14.6296 4.42188 14.668C4.34031 14.7258 4.26789 14.7956 4.20703 14.875C4.1664 14.9274 4.13107 14.9836 4.10156 15.043C4.08696 15.0735 4.07392 15.1048 4.0625 15.1367C4.05054 15.1674 4.04012 15.1987 4.03125 15.2305C4.03125 15.2318 4.03125 15.2331 4.03125 15.2344C4.02325 15.2653 4.01673 15.2966 4.01172 15.3281C4.00608 15.3618 4.00217 15.3957 4 15.4297C3.99918 15.4531 3.99918 15.4766 4 15.5C4 16.0407 3.59316 16.4556 3.0625 16.4883C3.03652 16.486 3.01046 16.4847 2.98438 16.4844C2.96872 16.4853 2.95309 16.4866 2.9375 16.4883C2.40684 16.4556 2 16.0407 2 15.5C2 14.9371 2.43706 14.5 3 14.5ZM5.18359 14.5H8.83594C8.8097 14.5042 8.78364 14.5094 8.75781 14.5156C8.75129 14.5169 8.74478 14.5182 8.73828 14.5195C8.72253 14.5244 8.7069 14.5296 8.69141 14.5352C8.66763 14.5434 8.64418 14.5525 8.62109 14.5625C8.60264 14.5698 8.5844 14.5776 8.56641 14.5859C8.56118 14.5885 8.55597 14.5911 8.55078 14.5938C8.53627 14.6012 8.52194 14.609 8.50781 14.6172C8.48789 14.6282 8.46834 14.64 8.44922 14.6523C8.44002 14.6574 8.43091 14.6626 8.42188 14.668C8.4086 14.6781 8.39557 14.6885 8.38281 14.6992C8.36953 14.7093 8.35651 14.7197 8.34375 14.7305C8.33174 14.7419 8.32002 14.7536 8.30859 14.7656C8.29659 14.7771 8.28486 14.7888 8.27344 14.8008C8.25584 14.8184 8.2389 14.8366 8.22266 14.8555C8.21737 14.8619 8.21216 14.8684 8.20703 14.875C8.19755 14.8891 8.18844 14.9034 8.17969 14.918C8.16745 14.9345 8.15572 14.9515 8.14453 14.9688C8.13198 14.9904 8.12026 15.0126 8.10938 15.0352C8.10263 15.0467 8.09612 15.0585 8.08984 15.0703C8.08572 15.082 8.08181 15.0937 8.07812 15.1055C8.06822 15.1273 8.0591 15.1494 8.05078 15.1719C8.04805 15.181 8.04544 15.1901 8.04297 15.1992C8.03731 15.216 8.0321 15.2329 8.02734 15.25C8.02457 15.2604 8.02197 15.2708 8.01953 15.2812C8.01649 15.2981 8.01389 15.315 8.01172 15.332C8.00819 15.3567 8.00559 15.3814 8.00391 15.4062C8.00251 15.414 8.00121 15.4219 8 15.4297C7.99957 15.4466 7.99957 15.4635 8 15.4805C7.99994 15.487 7.99994 15.4935 8 15.5C8 16.0629 7.56294 16.5 7 16.5C6.43706 16.5 6 16.0629 6 15.5C6.00165 15.3661 5.97642 15.2333 5.92578 15.1094C5.88823 15.0163 5.83687 14.9294 5.77344 14.8516C5.7108 14.7747 5.63708 14.7075 5.55469 14.6523C5.55339 14.6523 5.55208 14.6523 5.55078 14.6523C5.52427 14.6341 5.49689 14.6172 5.46875 14.6016C5.46745 14.6016 5.46615 14.6016 5.46484 14.6016C5.4369 14.5859 5.40822 14.5715 5.37891 14.5586C5.3776 14.5586 5.3763 14.5586 5.375 14.5586C5.31332 14.5327 5.24919 14.5131 5.18359 14.5ZM9.1875 14.5H12.8359C12.8097 14.5042 12.7836 14.5094 12.7578 14.5156C12.7513 14.5169 12.7448 14.5182 12.7383 14.5195C12.7225 14.5244 12.7069 14.5296 12.6914 14.5352C12.6676 14.5434 12.6442 14.5525 12.6211 14.5625C12.6132 14.565 12.6054 14.5676 12.5977 14.5703C12.5818 14.5777 12.5662 14.5855 12.5508 14.5938C12.506 14.6153 12.4629 14.6401 12.4219 14.668C12.4086 14.6781 12.3956 14.6885 12.3828 14.6992C12.3695 14.7093 12.3565 14.7197 12.3438 14.7305C12.3317 14.7419 12.32 14.7536 12.3086 14.7656C12.2966 14.7771 12.2849 14.7888 12.2734 14.8008C12.2558 14.8184 12.2389 14.8366 12.2227 14.8555C12.2174 14.8619 12.2122 14.8684 12.207 14.875C12.1976 14.8891 12.1884 14.9034 12.1797 14.918C12.1506 14.9577 12.1245 14.9994 12.1016 15.043C12.0947 15.0584 12.0881 15.0741 12.082 15.0898C12.0751 15.1053 12.0686 15.1209 12.0625 15.1367C12.0569 15.1522 12.0517 15.1678 12.0469 15.1836C12.038 15.2093 12.0302 15.2354 12.0234 15.2617C12.0189 15.2811 12.015 15.3007 12.0117 15.3203C12.0117 15.3255 12.0117 15.3307 12.0117 15.3359C12.0083 15.3593 12.0057 15.3827 12.0039 15.4062C12.0025 15.414 12.0012 15.4219 12 15.4297C11.9996 15.4466 11.9996 15.4635 12 15.4805C11.9999 15.487 11.9999 15.4935 12 15.5C12 16.0629 11.5629 16.5 11 16.5C10.4371 16.5 10 16.0629 10 15.5C10.0004 15.4661 9.99912 15.4322 9.99609 15.3984C9.98451 15.2654 9.9464 15.136 9.884 15.0179C9.82161 14.8999 9.7362 14.7955 9.63281 14.7109C9.60647 14.69 9.57909 14.6705 9.55078 14.6523C9.49545 14.6153 9.43657 14.5839 9.375 14.5586C9.31457 14.533 9.25177 14.5133 9.1875 14.5ZM13.1836 14.5H16.8359C16.6792 14.5257 16.5309 14.5883 16.4032 14.6828C16.2754 14.7772 16.1721 14.9007 16.1016 15.043C16.1016 15.0443 16.1016 15.0456 16.1016 15.0469C16.0722 15.1056 16.0486 15.1671 16.0312 15.2305C16.0312 15.2318 16.0312 15.2331 16.0312 15.2344C16.0232 15.2653 16.0167 15.2966 16.0117 15.3281C16.0117 15.3294 16.0117 15.3307 16.0117 15.332C16.0062 15.3644 16.0023 15.397 16 15.4297C15.9992 15.4531 15.9992 15.4766 16 15.5C16 16.0629 15.5629 16.5 15 16.5C14.4371 16.5 14 16.0629 14 15.5C14.0017 15.3661 13.9764 15.2333 13.9258 15.1094C13.8882 15.0163 13.8369 14.9294 13.7734 14.8516C13.7108 14.7747 13.6371 14.7075 13.5547 14.6523C13.5534 14.6523 13.5521 14.6523 13.5508 14.6523C13.5243 14.6341 13.4969 14.6172 13.4688 14.6016C13.4674 14.6016 13.4661 14.6016 13.4648 14.6016C13.4369 14.5859 13.4082 14.5715 13.3789 14.5586C13.3776 14.5586 13.3763 14.5586 13.375 14.5586C13.3133 14.5327 13.2492 14.5131 13.1836 14.5ZM17.1836 14.5H20.7422C20.5353 14.5552 20.3515 14.6752 20.2179 14.8426C20.0843 15.0099 20.008 15.2157 20 15.4297C19.9992 15.4531 19.9992 15.4766 20 15.5C20 16.0629 19.5629 16.5 19 16.5C18.4371 16.5 18 16.0629 18 15.5C18.0004 15.4661 17.9991 15.4322 17.9961 15.3984C17.9828 15.2486 17.9358 15.1037 17.8587 14.9745C17.7816 14.8453 17.6763 14.7352 17.5508 14.6523C17.5243 14.6341 17.4969 14.6172 17.4688 14.6016C17.4674 14.6016 17.4661 14.6016 17.4648 14.6016C17.4369 14.5859 17.4082 14.5715 17.3789 14.5586C17.3776 14.5586 17.3763 14.5586 17.375 14.5586C17.3133 14.5327 17.2492 14.5131 17.1836 14.5ZM21.2578 14.5H22.9297H23C23.5629 14.5 24 14.9371 24 15.5C24 16.0407 23.5932 16.4556 23.0625 16.4883C23.0209 16.4857 22.9791 16.4857 22.9375 16.4883C22.4068 16.4556 22 16.0407 22 15.5C22.0075 15.274 21.9382 15.0521 21.8034 14.8705C21.6686 14.6889 21.4763 14.5583 21.2578 14.5ZM5 17.7148C5.53323 18.1973 6.23182 18.5 7 18.5C7.76818 18.5 8.46677 18.1973 9 17.7148C9.53323 18.1973 10.2318 18.5 11 18.5C11.7682 18.5 12.4668 18.1973 13 17.7148C13.5332 18.1973 14.2318 18.5 15 18.5C15.7682 18.5 16.4668 18.1973 17 17.7148C17.5332 18.1973 18.2318 18.5 19 18.5C19.7682 18.5 20.4668 18.1973 21 17.7148C21.2894 17.9767 21.6285 18.1801 22 18.3164V19.5C22 20.0629 21.5629 20.5 21 20.5H5C4.43706 20.5 4 20.0629 4 19.5V18.3164C4.37147 18.1801 4.71062 17.9767 5 17.7148Z" fill="#225C4B"/>
</svg>
