<svg width="27" height="26" viewBox="0 0 27 26" fill="none" xmlns="http://www.w3.org/2000/svg">
<path d="M3.5 0C1.85156 0 0.5 1.35156 0.5 3V23C0.5 24.6484 1.85156 26 3.5 26H23.5C25.1484 26 26.5 24.6484 26.5 23V3C26.5 1.35156 25.1484 0 23.5 0H3.5ZM3.5 2H23.5C24.0625 2 24.5 2.4375 24.5 3V23C24.5 23.5625 24.0625 24 23.5 24H3.5C2.9375 24 2.5 23.5625 2.5 23V3C2.5 2.4375 2.9375 2 3.5 2ZM6.5 6V8H8.5V6H6.5ZM10.5 6V8H20.5V6H10.5ZM6.5 12V14H8.5V12H6.5ZM10.5 12V14H20.5V12H10.5ZM6.5 18V20H8.5V18H6.5ZM10.5 18V20H20.5V18H10.5Z" fill="white"/>
</svg>
