<svg width="49" height="48" viewBox="0 0 49 48" fill="none" xmlns="http://www.w3.org/2000/svg">
<rect x="0.5" width="48" height="48" rx="8" fill="white" fill-opacity="0.1"/>
<path d="M14.5 11C12.8516 11 11.5 12.3516 11.5 14V34C11.5 35.6484 12.8516 37 14.5 37H34.5C36.1484 37 37.5 35.6484 37.5 34V14C37.5 12.3516 36.1484 11 34.5 11H14.5ZM14.5 13H34.5C35.0625 13 35.5 13.4375 35.5 14V34C35.5 34.5625 35.0625 35 34.5 35H14.5C13.9375 35 13.5 34.5625 13.5 34V14C13.5 13.4375 13.9375 13 14.5 13ZM17.5 17V19H19.5V17H17.5ZM21.5 17V19H31.5V17H21.5ZM17.5 23V25H19.5V23H17.5ZM21.5 23V25H31.5V23H21.5ZM17.5 29V31H19.5V29H17.5ZM21.5 29V31H31.5V29H21.5Z" fill="white"/>
</svg>
