<svg width="32" height="33" viewBox="0 0 32 33" fill="none" xmlns="http://www.w3.org/2000/svg">
<path d="M8 14.5C6.89844 14.5 6 15.3984 6 16.5C6 17.6016 6.89844 18.5 8 18.5C9.10156 18.5 10 17.6016 10 16.5C10 15.3984 9.10156 14.5 8 14.5ZM16 14.5C14.8984 14.5 14 15.3984 14 16.5C14 17.6016 14.8984 18.5 16 18.5C17.1016 18.5 18 17.6016 18 16.5C18 15.3984 17.1016 14.5 16 14.5ZM24 14.5C22.8984 14.5 22 15.3984 22 16.5C22 17.6016 22.8984 18.5 24 18.5C25.1016 18.5 26 17.6016 26 16.5C26 15.3984 25.1016 14.5 24 14.5Z" fill="#225C4B"/>
</svg>
