<svg width="36" height="36" viewBox="0 0 36 36" fill="none" xmlns="http://www.w3.org/2000/svg">
<rect width="36" height="36" rx="18" fill="#C2E8DC"/>
<path d="M17.25 8.25V12.75H18.75V8.25H17.25ZM11.6367 10.5762L10.5762 11.6367L13.2188 14.2852L14.2852 13.2188L11.6367 10.5762ZM24.3633 10.5762L21.1523 13.7812L22.2188 14.8477L25.4238 11.6367L24.3633 10.5762ZM8.25 17.25V18.75H11.25V17.25H8.25ZM23.25 17.25V18.75H27.75V17.25H23.25ZM12.0938 22.8457L10.5762 24.3633L11.6367 25.4238L13.1602 23.9062L12.0938 22.8457ZM24.3633 23.3027L23.3027 24.3633L24.3633 25.4238L25.4238 24.3633L24.3633 23.3027ZM17.25 26.25V27.75H18.75V26.25H17.25Z" fill="#225C4B"/>
</svg>
