<svg width="36" height="36" viewBox="0 0 36 36" fill="none" xmlns="http://www.w3.org/2000/svg">
<rect width="36" height="36" rx="18" fill="#E3E3E3"/>
<path d="M18 8.25C12.627 8.25 8.25 12.627 8.25 18C8.25 23.373 12.627 27.75 18 27.75C23.373 27.75 27.75 23.373 27.75 18C27.75 12.627 23.373 8.25 18 8.25ZM18 9.75C22.5645 9.75 26.25 13.4355 26.25 18C26.25 22.5645 22.5645 26.25 18 26.25C13.4355 26.25 9.75 22.5645 9.75 18C9.75 13.4355 13.4355 9.75 18 9.75ZM21.9668 14.4727L16.5 19.9395L14.0273 17.4727L12.9727 18.5273L16.5 22.0605L23.0332 15.5273L21.9668 14.4727Z" fill="#225C4B"/>
</svg>
