<svg width="36" height="36" viewBox="0 0 36 36" fill="none" xmlns="http://www.w3.org/2000/svg">
<rect width="36" height="36" rx="18" fill="#C2E8DC"/>
<g clip-path="url(#clip0_51_428)">
<path d="M8.91675 10C7.68042 10 6.66675 11.0137 6.66675 12.25V22.75C6.66675 23.9863 7.68042 25 8.91675 25H9.80737C10.1179 25.8672 10.9441 26.5 11.9167 26.5C12.8894 26.5 13.7156 25.8672 14.0261 25H23.2664C23.5769 25.8672 24.4031 26.5 25.3757 26.5C26.3484 26.5 27.1746 25.8672 27.4851 25H28.4167C29.6472 25 30.6667 23.9863 30.6667 22.75V20.207C30.6667 19.7617 30.532 19.3223 30.2859 18.9531L27.948 15.502C27.5261 14.875 26.823 14.5 26.073 14.5H21.6667V12.25C21.6667 11.0137 20.6531 10 19.4167 10H8.91675ZM8.91675 11.5H19.4167C19.8386 11.5 20.1667 11.8281 20.1667 12.25V23.5H14.0261C13.7156 22.6328 12.8894 22 11.9167 22C10.9441 22 10.1179 22.6328 9.80737 23.5H8.91675C8.49487 23.5 8.16675 23.1719 8.16675 22.75V12.25C8.16675 11.8281 8.49487 11.5 8.91675 11.5ZM21.6667 16H26.073C26.325 16 26.5593 16.1289 26.7 16.334V16.3398L29.0378 19.791C29.1199 19.9141 29.1667 20.0547 29.1667 20.207V22.75C29.1667 23.1719 28.8386 23.5 28.4167 23.5H27.4851C27.1746 22.6328 26.3484 22 25.3757 22C24.4031 22 23.5769 22.6328 23.2664 23.5H21.6667V16ZM11.9167 23.5C12.3386 23.5 12.6667 23.8281 12.6667 24.25C12.6667 24.6719 12.3386 25 11.9167 25C11.4949 25 11.1667 24.6719 11.1667 24.25C11.1667 23.8281 11.4949 23.5 11.9167 23.5ZM25.3757 23.5C25.7976 23.5 26.1257 23.8281 26.1257 24.25C26.1257 24.6719 25.7976 25 25.3757 25C24.9539 25 24.6257 24.6719 24.6257 24.25C24.6257 23.8281 24.9539 23.5 25.3757 23.5Z" fill="#225C4B"/>
</g>
<defs>
<clipPath id="clip0_51_428">
<rect width="24" height="24" fill="white" transform="translate(6.66675 7)"/>
</clipPath>
</defs>
</svg>
