<svg width="36" height="36" viewBox="0 0 36 36" fill="none" xmlns="http://www.w3.org/2000/svg">
<rect width="36" height="36" rx="18" fill="#C2E8DC"/>
<path d="M18.3333 9C16.3293 9 14.636 10.2949 14.0559 12.1348C13.7395 12.0469 13.4114 12 13.0833 12C11.0149 12 9.33325 13.6816 9.33325 15.75C9.33325 17.5605 10.6223 19.0781 12.3333 19.4238V26.25C12.3333 26.666 12.6672 27 13.0833 27H23.5833C23.9993 27 24.3333 26.666 24.3333 26.25V19.4238C26.0442 19.0781 27.3333 17.5605 27.3333 15.75C27.3333 13.6816 25.6516 12 23.5833 12C23.2551 12 22.927 12.0469 22.6047 12.1348C22.0305 10.2949 20.3372 9 18.3333 9ZM18.3333 10.5C19.8918 10.5 21.1692 11.6777 21.304 13.2422L21.4036 14.4492L22.4348 13.8281C22.7981 13.6113 23.1848 13.5 23.5833 13.5C24.8254 13.5 25.8333 14.5078 25.8333 15.75C25.8333 16.9922 24.8254 18 23.5833 18H22.0833C21.6672 18 21.3333 18.334 21.3333 18.75C21.3333 19.166 21.6672 19.5 22.0833 19.5H22.8333V22.5H13.8333V19.5H14.5833C14.9993 19.5 15.3333 19.166 15.3333 18.75C15.3333 18.334 14.9993 18 14.5833 18H13.0833C11.8411 18 10.8333 16.9922 10.8333 15.75C10.8333 14.5078 11.8411 13.5 13.0833 13.5C13.4817 13.5 13.8684 13.6113 14.2317 13.8281L15.2629 14.4492L15.3625 13.2422C15.4973 11.6777 16.7747 10.5 18.3333 10.5ZM13.8333 24H22.8333V25.5H13.8333V24Z" fill="#225C4B"/>
</svg>
