<svg width="33" height="32" viewBox="0 0 33 32" fill="none" xmlns="http://www.w3.org/2000/svg">
<path d="M16.5 4C13.1953 4 10.5 6.69531 10.5 10C10.5 13.3047 13.1953 16 16.5 16C19.8047 16 22.5 13.3047 22.5 10C22.5 6.69531 19.8047 4 16.5 4ZM16.5 16C10.9922 16 6.5 20.4922 6.5 26H8.5C8.5 21.5703 12.0703 18 16.5 18C20.9297 18 24.5 21.5703 24.5 26H26.5C26.5 20.4922 22.0078 16 16.5 16ZM16.5 6C18.7188 6 20.5 7.78125 20.5 10C20.5 12.2188 18.7188 14 16.5 14C14.2812 14 12.5 12.2188 12.5 10C12.5 7.78125 14.2812 6 16.5 6Z" fill="white"/>
</svg>
