<svg width="33" height="33" viewBox="0 0 33 33" fill="none" xmlns="http://www.w3.org/2000/svg">
<path d="M25.2903 4.48829C25.0943 4.49761 24.9052 4.56443 24.7469 4.68044C24.5885 4.79644 24.4678 4.95649 24.3997 5.14063L20.0482 16.5H8.33331C8.33331 15.3851 9.21838 14.5 10.3333 14.5C10.562 14.5 10.778 14.5541 10.9896 14.6328C11.1692 14.7912 11.3996 14.8798 11.639 14.8827C11.8784 14.8856 12.1109 14.8024 12.2943 14.6484C12.4126 14.5615 12.5103 14.4496 12.5805 14.3207C12.6507 14.1917 12.6917 14.0489 12.7005 13.9024C12.9575 13.0938 13.6824 12.5 14.5833 12.5C15.07 12.5 15.4986 12.6868 15.8528 12.9844C16.0346 13.1724 16.2828 13.2818 16.5443 13.2891C16.5456 13.2891 16.5469 13.2891 16.5482 13.2891C16.6148 13.2918 16.6815 13.2879 16.7474 13.2774C16.9631 13.2441 17.162 13.1412 17.3138 12.9844C17.6681 12.6868 18.0966 12.5 18.5833 12.5C18.8673 12.5 19.1246 12.5831 19.3646 12.7031L20.0755 10.8438C19.6947 10.6796 19.288 10.5747 18.8607 10.5352C18.7703 10.5105 18.677 10.4987 18.5833 10.5C17.8505 10.5 17.1697 10.7141 16.5833 11.0586C15.9969 10.7141 15.3161 10.5 14.5833 10.5C13.0758 10.5 11.7705 11.3508 11.0911 12.5938C10.8459 12.5435 10.5963 12.5 10.3333 12.5C8.13625 12.5 6.33331 14.3029 6.33331 16.5H4.33331V17.5C4.33331 26.846 13.0753 28.47 13.3333 28.5L19.5286 28.4844C19.6166 28.4684 28.3607 26.846 28.3607 17.5V16.5H26.3333C26.3333 14.7502 25.2086 13.2542 23.638 12.7227L26.2669 5.85938C26.3293 5.70383 26.3515 5.5351 26.3317 5.36869C26.3118 5.20228 26.2505 5.04353 26.1532 4.90702C26.056 4.77052 25.926 4.66064 25.7753 4.58747C25.6245 4.5143 25.4577 4.4802 25.2903 4.48829ZM22.9153 14.6172C23.7292 14.8707 24.3333 15.6043 24.3333 16.5H22.1927L22.9153 14.6172ZM6.37628 18.5H26.3177C25.7497 25.258 19.4747 26.464 19.3607 26.5L13.5091 26.5156C13.2311 26.4636 6.94428 25.258 6.37628 18.5Z" fill="#225C4B"/>
</svg>
