<svg width="24" height="24" viewBox="0 0 24 24" fill="none" xmlns="http://www.w3.org/2000/svg">
<path d="M14.9648 2.25C11.2441 2.25 8.21484 5.2793 8.21484 9C8.21484 10.5879 8.78906 12.0352 9.71484 13.1895L2.25 20.6543L3.30469 21.7207L10.7754 14.25C11.9297 15.1758 13.377 15.75 14.9648 15.75C18.6855 15.75 21.7148 12.7207 21.7148 9C21.7148 5.2793 18.6855 2.25 14.9648 2.25ZM14.9648 3.75C17.8711 3.75 20.2148 6.09375 20.2148 9C20.2148 11.9062 17.8711 14.25 14.9648 14.25C12.0586 14.25 9.71484 11.9062 9.71484 9C9.71484 6.09375 12.0586 3.75 14.9648 3.75Z" fill="#225C4B"/>
</svg>
