<svg width="12" height="13" viewBox="0 0 12 13" fill="none" xmlns="http://www.w3.org/2000/svg">
<path d="M5 -9.06833e-06C4.82031 -0.00391507 4.65234 0.0937409 4.5625 0.246085C4.46875 0.402335 4.46875 0.597647 4.5625 0.753897C4.65234 0.906241 4.82031 1.0039 5 0.999991H5.5V2.02343C2.70312 2.28124 0.5 4.63671 0.5 7.49999C0.5 10.5312 2.96875 13 6 13C9.03125 13 11.5 10.5312 11.5 7.49999C11.5 4.63671 9.29688 2.28124 6.5 2.02343V0.999991H7C7.17969 1.0039 7.34766 0.906241 7.4375 0.753897C7.53125 0.597647 7.53125 0.402335 7.4375 0.246085C7.34766 0.0937409 7.17969 -0.00391507 7 -9.06833e-06H5ZM9.99609 1.99218C9.78906 1.99608 9.60547 2.11718 9.53125 2.30858C9.45312 2.49608 9.5 2.71093 9.64453 2.85155L10.707 3.91405C10.8359 4.04687 11.0195 4.09765 11.1953 4.05468C11.3711 4.0078 11.5078 3.87108 11.5547 3.6953C11.5977 3.51952 11.5469 3.33593 11.418 3.21093L10.3555 2.14843C10.2578 2.05077 10.1289 1.99218 9.99609 1.99218ZM6 2.99999C8.49219 2.99999 10.5 5.0078 10.5 7.49999C10.5 9.99218 8.49219 12 6 12C3.50781 12 1.5 9.99218 1.5 7.49999C1.5 5.0078 3.50781 2.99999 6 2.99999ZM3.99219 4.99218C3.78906 4.99608 3.60547 5.11718 3.53125 5.30859C3.45312 5.49609 3.5 5.71093 3.64844 5.85155L5.64844 7.85155C5.77344 7.98437 5.95703 8.03515 6.13281 7.99218C6.30859 7.9453 6.44531 7.80859 6.49219 7.6328C6.53516 7.45702 6.48438 7.27343 6.35156 7.14843L4.35156 5.14843C4.25781 5.05077 4.12891 4.99218 3.99219 4.99218Z" fill="#EE728A"/>
</svg>
